<?xml version="1.0" encoding="UTF-8"?>
<!DOCTYPE svg PUBLIC "-//W3C//DTD SVG 1.1//EN" "http://www.w3.org/Graphics/SVG/1.1/DTD/svg11.dtd">
<!-- Creator: CorelDRAW 2020 (64-Bit) -->
<svg xmlns="http://www.w3.org/2000/svg" xml:space="preserve" width="585px" height="585px" version="1.1" style="shape-rendering:geometricPrecision; text-rendering:geometricPrecision; image-rendering:optimizeQuality; fill-rule:evenodd; clip-rule:evenodd"
viewBox="0 0 63.03 63.03"
 xmlns:xlink="http://www.w3.org/1999/xlink"
 xmlns:xodm="http://www.corel.com/coreldraw/odm/2003">
 <defs>
  <style type="text/css">
   <![CDATA[
    .fil0 {fill:#FEFEFE;fill-rule:nonzero}
   ]]>
  </style>
 </defs>
 <g id="Layer_x0020_1">
  <metadata id="CorelCorpID_0Corel-Layer"/>
  <g id="_2041132951088">
   <path class="fil0" d="M17.94 5.4c-6.91,0 -12.54,5.63 -12.54,12.54l0 27.15c0,6.91 5.63,12.54 12.54,12.54l27.15 0c6.91,0 12.54,-5.63 12.54,-12.54l0 -27.15c0,-6.91 -5.63,-12.54 -12.54,-12.54l-27.15 0zm27.15 57.63l-27.15 0c-9.89,0 -17.94,-8.05 -17.94,-17.94l0 -27.15c0,-9.89 8.05,-17.94 17.94,-17.94l27.15 0c9.89,0 17.94,8.05 17.94,17.94l0 27.15c0,9.89 -8.05,17.94 -17.94,17.94z"/>
   <path class="fil0" d="M31.52 20.78c-5.92,0 -10.74,4.82 -10.74,10.73 0,5.92 4.82,10.74 10.74,10.74 5.92,0 10.73,-4.82 10.73,-10.74 0,-5.91 -4.81,-10.73 -10.73,-10.73zm0 26.87c-8.9,0 -16.14,-7.24 -16.14,-16.14 0,-8.89 7.24,-16.13 16.14,-16.13 8.89,0 16.13,7.24 16.13,16.13 0,8.9 -7.24,16.14 -16.13,16.14z"/>
   <path class="fil0" d="M52.23 14.45c0,2.15 -1.74,3.88 -3.88,3.88 -2.15,0 -3.88,-1.73 -3.88,-3.88 0,-2.14 1.73,-3.88 3.88,-3.88 2.14,0 3.88,1.74 3.88,3.88z"/>
  </g>
 </g>
</svg>
